<svg xmlns="http://www.w3.org/2000/svg" viewBox="0 0 512 512" style="height: 512px; width: 512px;"><defs><filter id="shadow-4" height="300%" width="300%" x="-100%" y="-100%"><feFlood flood-color="rgba(201, 201, 201, 1)" result="flood"></feFlood><feComposite in="flood" in2="SourceGraphic" operator="atop" result="composite"></feComposite><feGaussianBlur in="composite" stdDeviation="15" result="blur"></feGaussianBlur><feOffset dx="0" dy="0" result="offset"></feOffset><feComposite in="SourceGraphic" in2="offset" operator="over"></feComposite></filter></defs><g class="" transform="translate(-2,0)" style=""><g><path d="M265.174 45.484C264.622 45.472 264.07 45.51 263.524 45.596L235.934 93.386C236.238 94.176 237.064 95.746 238.627 97.654C242.017 101.788 248.315 107.09 256.097 111.582C263.877 116.074 271.617 118.878 276.893 119.746C279.325 120.146 281.098 120.076 281.936 119.943L288.926 107.838C288.608 107.685 288.291 107.533 287.98 107.354C281.22 103.451 278.904 94.804 282.807 88.044C286.709 81.284 295.353 78.97 302.113 82.874C302.423 83.052 302.713 83.252 303.006 83.451L309.526 72.157C309.223 71.367 308.396 69.795 306.832 67.887C303.442 63.754 297.144 58.452 289.362 53.96C281.582 49.466 273.842 46.663 268.568 45.795C267.446 45.607 266.312 45.503 265.174 45.485Z" class="" fill="#ffffff" fill-opacity="1"></path><path d="M204.474 94.02C203.451 94.006 202.428 94.016 201.406 94.05C185.276 94.57 173.696 100.287 167.203 111.533C166.927 112.011 166.475 113.416 167.871 117.16C169.268 120.904 172.511 126.17 177.429 131.88C187.266 143.3 203.596 156.587 223.483 168.068C243.371 179.55 263.043 187.048 277.851 189.858C285.255 191.265 291.438 191.438 295.378 190.775C299.318 190.112 300.308 189.02 300.583 188.543L300.583 188.541C306.541 178.225 305.809 165.128 298.255 150.661C295.919 146.187 292.919 141.668 289.323 137.231C288.268 137.651 287.206 137.971 286.177 138.191C282.097 139.071 278.073 138.881 273.857 138.187C265.43 136.799 256.144 133.19 246.753 127.769C237.361 122.347 229.593 116.109 224.177 109.503C221.469 106.2 219.289 102.81 218.011 98.837C217.639 97.665 217.379 96.461 217.233 95.241C212.81 94.484 208.533 94.073 204.476 94.021Z" class="" fill="#b57204" fill-opacity="1"></path><path d="M301.704 98.838L495.309 354.754L495.309 123.024L301.702 98.837Z" class="selected" fill="#9b9b9b" fill-opacity="1" filter="url(#shadow-4)"></path><path d="M154.91 132.822L42.62 327.316L42.613 327.328C42.103 328.22 41.713 329.833 43.047 333.641C44.387 337.465 47.559 342.771 52.432 348.513C62.176 359.996 78.488 373.279 98.375 384.761C118.262 396.241 137.925 403.727 152.74 406.425C160.15 407.775 166.33 407.867 170.31 407.115C174.29 406.365 175.486 405.215 176 404.325L176.002 404.327L288.295 209.83C283.899 209.708 279.265 209.15 274.365 208.22C256.649 204.86 235.553 196.617 214.139 184.254C192.723 171.891 175.039 157.742 163.269 144.08C160.014 140.302 157.214 136.568 154.911 132.822Z" class="" fill="#9b9b9b" fill-opacity="1"></path><path d="M188.39 197.598C193.398 197.688 198.052 198.878 202.178 201.26L202.178 201.252C216.848 209.722 221.788 231.522 216.838 257.734C214.373 241.118 205.908 226.657 192.108 218.694C178.308 210.734 161.555 210.63 145.934 216.804C160.471 204.301 175.588 197.364 188.389 197.598Z" class="" fill="#8b572a" fill-opacity="1"></path><path d="M94.45 303.38C96.47 320.948 104.92 336.434 119.332 344.758C133.982 353.208 152.046 352.751 168.492 345.375L168.492 345.381C146.94 365.781 123.419 374.129 107.637 365.017C91.987 355.983 87.807 331.925 94.45 303.382Z" class="" fill="#8b572a" fill-opacity="1"></path><path d="M29.937 349.28L21.837 363.31C21.324 364.197 20.927 365.808 22.267 369.63C23.607 373.454 26.777 378.76 31.649 384.502C41.389 395.98 57.693 409.259 77.569 420.738L77.593 420.752L77.595 420.752C97.482 432.232 117.143 439.717 131.96 442.414C139.368 443.764 145.55 443.856 149.53 443.104C153.51 442.354 154.707 441.204 155.22 440.316L163.32 426.286C158.912 426.214 154.275 425.7 149.39 424.811C131.55 421.564 110.443 413.308 89.028 400.944C67.615 388.581 49.912 374.43 38.18 360.604C34.967 356.819 32.203 353.062 29.937 349.28Z" class="" fill="#c9c9c9" fill-opacity="1"></path></g></g></svg>